<svg data-v-55218acc="" version="1.0" xmlns="http://www.w3.org/2000/svg" xmlns:xlink="http://www.w3.org/1999/xlink" width="100%" height="100%" viewBox="0 0 340.000000 250.000000" preserveAspectRatio="xMidYMid meet" color-interpolation-filters="sRGB" class="el-tooltip" style="margin: auto;"><rect data-v-55218acc="" x="0" y="0" width="100%" height="100%" fill="#fff" fill-opacity="1"></rect> <rect data-v-55218acc="" x="0" y="0" width="100%" height="100%" fill="url(#watermark)" fill-opacity="1" class="watermarklayer"></rect> <g data-v-55218acc="" fill="#0e0f0f" class="icon-text-wrapper icon-svg-group iconsvg" transform="translate(82.29499053955078,65.97983169555664)"><g class="iconsvg-imagesvg" transform="translate(57.70500946044922,0)"><rect fill="#0e0f0f" fill-opacity="0" stroke-width="2" x="0" y="0" width="60" height="60"></rect> <svg x="0" y="0" width="60" height="60" class="image-svg-svg"><svg xmlns="http://www.w3.org/2000/svg" viewBox="0 0 91.1 91.04"><g fill="#0E0F0F"><path d="M13.25 31.41c-1.33 8.61.52 17.13 5.09 23.38 3.51 4.8 8.41 7.91 13.8 8.74 5.68.88 11.25-.43 15.7-3.68 1.25-.91 2.36-1.95 3.33-3.08-2.22.98-4.81 1.27-7.63.83-11.72-1.82-19.67-13.46-17.74-25.96.93-6.03 4.38-11.5 9.71-15.4 6.77-4.95 15.95-6.97 25.2-5.54 7.47 1.16 17.67 5.96 25.56 15.21 0 0-22.83-39.42-56.11-20.36-10.73 6.16-15.76 18.44-16.91 25.86z"></path><path d="M78.29 60.92c1.66-8.55.13-17.14-4.21-23.56-3.33-4.93-8.11-8.22-13.46-9.25-5.64-1.09-11.26 0-15.83 3.09a19.19 19.19 0 0 0-3.44 2.95c2.26-.89 4.86-1.08 7.65-.54 11.64 2.26 19.15 14.2 16.74 26.62-1.16 5.99-4.82 11.32-10.29 15.02-6.95 4.69-16.2 6.36-25.39 4.58-7.42-1.44-17.42-6.63-24.96-16.17 0 0 21.33 40.25 55.31 22.46 10.95-5.74 16.45-17.83 17.88-25.2z"></path><path d="M31.47 78.55c8.61 1.33 17.13-.52 23.38-5.09 4.8-3.51 7.9-8.41 8.74-13.8.88-5.68-.43-11.25-3.69-15.7-.91-1.25-1.95-2.36-3.08-3.33.98 2.22 1.27 4.81.83 7.63-1.81 11.71-13.45 19.67-25.96 17.73-6.03-.93-11.5-4.38-15.4-9.71-4.95-6.77-6.97-15.95-5.54-25.2 1.16-7.47 5.96-17.67 15.21-25.56 0 0-39.42 22.83-20.36 56.11 6.16 10.73 18.45 15.77 25.87 16.92z"></path><path d="M86.17 31.38C80.43 20.42 68.35 14.93 60.98 13.5c-8.55-1.66-17.14-.12-23.56 4.21-4.93 3.33-8.22 8.11-9.25 13.46-1.09 5.64 0 11.26 3.09 15.83a19.19 19.19 0 0 0 2.95 3.44c-.89-2.26-1.08-4.86-.54-7.65 2.26-11.64 14.2-19.15 26.62-16.74 5.99 1.16 11.32 4.82 15.02 10.29 4.69 6.95 6.36 16.2 4.58 25.39-1.44 7.42-6.63 17.43-16.17 24.97 0-.01 40.25-21.34 22.45-55.32z"></path></g></svg></svg> <!----></g> <g transform="translate(0,67)"><g class="tp-name iconsvg-namesvg" transform="translate(0.00000762939453125,0)"><g><path d="M25.29-13.72L25.29-11.47L42.34-11.47L42.34-7.96L25.29-7.96L25.29 2.29L25.29 2.29Q25.29 4.00 24.10 5.17L24.10 5.17L24.10 5.17Q22.90 6.34 21.24 6.34L21.24 6.34L14.67 6.34L14.67 2.79L21.24 2.79L21.24 2.79Q21.73 2.79 21.73 2.29L21.73 2.29L21.73-7.96L2.79-7.96L2.79-11.47L21.73-11.47L21.73-15.52L33.34-24.03L6.88-24.03L6.88-27.58L39.10-27.58L39.10-23.89L25.29-13.72ZM76.63 6.39L73.13 6.39L73.13 2.16L62.55 2.16L62.55-1.35L73.13-1.35L73.13-5.13L63.77-5.13L63.77-24.48L67.77-24.48L66.51-27.40L69.75-28.80L71.59-24.48L77.31-24.48L79.20-28.80L82.44-27.40L81.18-24.48L82.35-24.48L82.35-25.15L85.86-25.15L85.86-9.18L85.86-9.18Q85.86-7.51 84.69-6.32L84.69-6.32L84.69-6.32Q83.52-5.13 81.81-5.13L81.81-5.13L76.63-5.13L76.63-1.35L87.03-1.35L87.03 2.16L76.63 2.16L76.63 6.39ZM76.63-8.69L81.81-8.69L81.81-8.69Q82.35-8.69 82.35-9.18L82.35-9.18L82.35-12.96L76.63-12.96L76.63-8.69ZM82.35-16.52L82.35-20.97L76.63-20.97L76.63-16.52L82.35-16.52ZM73.13-20.97L67.32-20.97L67.32-16.52L73.13-16.52L73.13-20.97ZM67.32-8.69L73.13-8.69L73.13-12.96L67.32-12.96L67.32-8.69ZM58.14-14.08L52.11-14.08L51.57-9.40L58.63-9.40L58.63-10.21L62.19-10.21L62.19 2.25L62.19 2.25Q62.19 3.92 61.00 5.11L61.00 5.11L61.00 5.11Q59.80 6.30 58.14 6.30L58.14 6.30L49.59 6.30L49.59 2.75L58.14 2.75L58.14 2.75Q58.63 2.75 58.63 2.25L58.63 2.25L58.63-5.89L47.56-5.89L48.96-17.59L58.14-17.59L58.14-17.59Q58.37-17.59 58.50-17.75L58.50-17.75L58.50-17.75Q58.63-17.91 58.63-18.13L58.63-18.13L58.63-23.54L47.97-23.54L47.97-27.04L58.63-27.04L58.63-27.95L62.19-27.95L62.19-18.13L62.19-18.13Q62.19-16.43 61.00-15.25L61.00-15.25L61.00-15.25Q59.80-14.08 58.14-14.08L58.14-14.08ZM92.75-24.12L92.75-27.63L132.21-27.63L132.21-24.12L115.25-24.12L113.53-20.25L126.22-20.25L126.22-21.06L129.78-21.06L129.78 2.52L129.78 2.52Q129.78 4.18 128.61 5.38L128.61 5.38L128.61 5.38Q127.44 6.57 125.73 6.57L125.73 6.57L95.22 6.57L95.22-20.25L109.66-20.25L111.38-24.12L92.75-24.12ZM117.22-5.17L117.22-9.49L107.69-9.49L107.69-5.17L117.22-5.17ZM107.69-1.62L107.69 3.01L117.22 3.01L117.22-1.62L107.69-1.62ZM117.22-13.00L117.22-16.74L107.69-16.74L107.69-13.00L117.22-13.00ZM98.73-16.74L98.73 3.01L104.17 3.01L104.17-16.74L98.73-16.74ZM126.22 2.52L126.22-16.74L120.78-16.74L120.78 3.01L125.73 3.01L125.73 3.01Q126.22 3.01 126.22 2.52L126.22 2.52ZM163.98-11.92L159.12-11.92L159.12 0.09L164.38-1.08L165.15 2.34L150.30 5.71L149.53 2.25L155.56 0.90L155.56-11.92L150.66-11.92L150.66-15.48L163.98-15.48L163.98-11.92ZM173.38 1.40L175.23-1.48L178.20 0.45L174.24 6.57L172.75 5.67L172.75 5.67Q172.62 5.58 171.50 4.57L171.50 4.57L171.50 4.57Q170.37 3.55 169.06 1.08L169.06 1.08L169.06 1.08Q165.78-5.26 165.78-15.84L165.78-15.84L165.78-18.86L149.35-18.86L149.35-22.41L165.78-22.41L165.78-28.30L169.34-28.30L169.34-22.41L172.49-22.41L169.92-26.32L172.84-28.30L176.31-23.04L175.32-22.41L177.57-22.41L177.57-18.86L169.34-18.86L169.34-15.84L169.34-15.84Q169.34-11.97 169.74-9.09L169.74-9.09L169.74-9.09Q170.14-6.21 170.75-4.14L170.75-4.14L170.75-4.14Q171.36-2.07 172.08-0.72L172.08-0.72L172.08-0.72Q172.80 0.63 173.38 1.40L173.38 1.40ZM138.60-25.33L140.00-28.57L149.31-24.52L147.87-21.29L138.60-25.33ZM146.12-0.85L149.18-2.25L150.66 0.94L139.32 6.25L137.84 3.01L142.56 0.81L142.56-16.74L137.52-16.74L137.52-20.29L146.12-20.29L146.12-0.85Z" transform="translate(-2.79, 28.8)"></path></g> <!----> <!----> <!----> <!----> <!----> <!----> <!----></g> <g class="tp-slogan iconsvg-slogansvg" fill="#333" transform="translate(0,42.369998931884766)"><!----> <rect x="0" height="1" y="3.836106300354004" width="30.915000915527344"></rect> <rect height="1" y="3.836106300354004" width="30.915000915527344" x="144.49500274658203"></rect> <g transform="translate(33.915000915527344,0)"><path d="M4.13-7.64L2.06-7.64L2.06-4.97L4.13-4.97L4.13-4.97Q5.95-4.92 5.91-6.38L5.91-6.38L5.91-6.38Q5.91-7.64 4.13-7.64L4.13-7.64ZM4.59 0L0.89 0L0.89-8.58L4.69-8.58L4.69-8.58Q6.98-8.48 7.08-6.42L7.08-6.42L7.08-6.42Q7.08-5.16 5.95-4.64L5.95-4.64L5.95-4.64Q7.55-4.08 7.55-2.53L7.55-2.53L7.55-2.53Q7.41-0.09 4.59 0L4.59 0ZM4.31-3.98L2.06-3.98L2.06-0.98L4.55-0.98L4.55-0.98Q6.33-1.03 6.38-2.53L6.38-2.53L6.38-2.53Q6.38-3.98 4.31-3.98L4.31-3.98ZM13.83-6.28L13.83 0L12.84 0L12.84-0.89L12.80-0.94L12.80-0.94Q12.14 0.14 10.78 0.09L10.78 0.09L10.78 0.09Q8.81 0 8.77-1.78L8.77-1.78L8.77-6.28L9.84-6.28L9.84-2.11L9.84-2.11Q9.84-0.70 11.06-0.70L11.06-0.70L11.06-0.70Q12.66-0.75 12.80-2.81L12.80-2.81L12.80-6.28L13.83-6.28ZM15.42-8.58L16.50-8.58L16.50 0L15.42 0L15.42-8.58ZM18.05-8.58L19.13-8.58L19.13 0L18.05 0L18.05-8.58ZM24.94-1.97L24.94-1.97L25.97-1.97L25.97-1.97Q25.78-0.89 24.84-0.23L24.84-0.23L24.84-0.23Q24.33 0.09 23.16 0.09L23.16 0.09L23.16 0.09Q20.48 0 20.34-2.95L20.34-2.95L20.34-2.95Q20.44-6.38 23.34-6.47L23.34-6.47L23.34-6.47Q26.02-6.42 26.06-2.77L26.06-2.77L21.47-2.77L21.47-2.77Q21.47-0.70 23.30-0.70L23.30-0.70L23.30-0.70Q24.61-0.80 24.94-1.97ZM21.47-3.61L21.47-3.61L24.98-3.61L24.98-3.61Q24.84-5.48 23.20-5.48L23.20-5.48L23.20-5.48Q21.66-5.34 21.47-3.61ZM29.63-6.28L29.63-5.39L28.59-5.39L28.59-1.31L28.59-1.31Q28.59-0.80 29.20-0.80L29.20-0.80L29.63-0.80L29.63 0L29.63 0Q29.34 0 28.97 0L28.97 0L28.97 0Q28.88 0 28.83 0L28.83 0L28.83 0Q27.47 0 27.52-1.22L27.52-1.22L27.52-5.39L26.72-5.39L26.72-6.28L27.52-6.28L27.52-8.02L28.59-8.02L28.59-6.28L29.63-6.28ZM33.98-6.28L35.06-6.28L35.06 0L33.98 0L33.98-6.28ZM35.06-8.58L35.06-7.41L33.98-7.41L33.98-8.58L35.06-8.58ZM41.67-4.27L41.67-4.27L41.67 0L40.64 0L40.64-3.84L40.64-3.84Q40.73-5.58 39.28-5.48L39.28-5.48L39.28-5.48Q37.69-5.39 37.64-3.42L37.64-3.42L37.64 0L36.56 0L36.56-6.28L37.59-6.28L37.59-5.39L37.59-5.39Q38.34-6.47 39.52-6.47L39.52-6.47L39.52-6.47Q41.63-6.42 41.67-4.27ZM45.56-6.28L45.56-5.39L44.53-5.39L44.53-1.31L44.53-1.31Q44.53-0.80 45.14-0.80L45.14-0.80L45.56-0.80L45.56 0L45.56 0Q45.28 0 44.91 0L44.91 0L44.91 0Q44.81 0 44.77 0L44.77 0L44.77 0Q43.41 0 43.45-1.22L43.45-1.22L43.45-5.39L42.66-5.39L42.66-6.28L43.45-6.28L43.45-8.02L44.53-8.02L44.53-6.28L45.56-6.28ZM50.86-1.97L50.86-1.97L51.89-1.97L51.89-1.97Q51.70-0.89 50.77-0.23L50.77-0.23L50.77-0.23Q50.25 0.09 49.08 0.09L49.08 0.09L49.08 0.09Q46.41 0 46.27-2.95L46.27-2.95L46.27-2.95Q46.36-6.38 49.27-6.47L49.27-6.47L49.27-6.47Q51.94-6.42 51.98-2.77L51.98-2.77L47.39-2.77L47.39-2.77Q47.39-0.70 49.22-0.70L49.22-0.70L49.22-0.70Q50.53-0.80 50.86-1.97ZM47.39-3.61L47.39-3.61L50.91-3.61L50.91-3.61Q50.77-5.48 49.13-5.48L49.13-5.48L49.13-5.48Q47.58-5.34 47.39-3.61ZM54.42-3.66L54.42-3.66L54.42 0L53.34 0L53.34-6.28L54.38-6.28L54.38-5.20L54.38-5.20Q55.08-6.47 56.16-6.47L56.16-6.47L56.16-6.47Q56.25-6.47 56.34-6.42L56.34-6.42L56.34-6.42Q56.39-6.42 56.44-6.42L56.44-6.42L56.44-5.30L56.02-5.30L56.02-5.30Q54.52-5.20 54.42-3.66ZM59.30-1.13L59.34-1.13L61.13-6.28L62.25-6.28L59.91 0L58.78 0L56.48-6.28L57.70-6.28L59.30-1.13ZM63.19-6.28L64.27-6.28L64.27 0L63.19 0L63.19-6.28ZM64.27-8.58L64.27-7.41L63.19-7.41L63.19-8.58L64.27-8.58ZM70.08-1.97L70.08-1.97L71.11-1.97L71.11-1.97Q70.92-0.89 69.98-0.23L69.98-0.23L69.98-0.23Q69.47 0.09 68.30 0.09L68.30 0.09L68.30 0.09Q65.63 0 65.48-2.95L65.48-2.95L65.48-2.95Q65.58-6.38 68.48-6.47L68.48-6.47L68.48-6.47Q71.16-6.42 71.20-2.77L71.20-2.77L66.61-2.77L66.61-2.77Q66.61-0.70 68.44-0.70L68.44-0.70L68.44-0.70Q69.75-0.80 70.08-1.97ZM66.61-3.61L66.61-3.61L70.13-3.61L70.13-3.61Q69.98-5.48 68.34-5.48L68.34-5.48L68.34-5.48Q66.80-5.34 66.61-3.61ZM75.98-4.88L75.94-4.88L74.77 0L73.64 0L71.86-6.28L72.98-6.28L74.16-1.31L74.20-1.31L75.42-6.28L76.59-6.28L77.81-1.31L77.86-1.31L79.08-6.28L80.16-6.28L78.33 0L77.25 0L75.98-4.88ZM89.34-4.13L89.34-4.13L88.31-4.13L88.31-4.13Q88.17-5.48 86.86-5.48L86.86-5.48L86.86-5.48Q85.17-5.39 85.08-3.14L85.08-3.14L85.08-3.14Q85.08-0.70 86.81-0.70L86.81-0.70L86.81-0.70Q88.08-0.80 88.31-2.20L88.31-2.20L89.34-2.20L89.34-2.20Q88.97 0.05 86.81 0.09L86.81 0.09L86.81 0.09Q84.09 0 84-2.95L84-2.95L84-2.95Q84.09-6.38 87-6.47L87-6.47L87-6.47Q89.06-6.42 89.34-4.13ZM91.36-4.36L91.36-4.36L90.38-4.36L90.38-4.36Q90.42-6.47 92.95-6.47L92.95-6.47L92.95-6.47Q95.20-6.38 95.25-4.69L95.25-4.69L95.25-1.08L95.25-1.08Q95.25-0.70 95.63-0.70L95.63-0.70L95.63-0.70Q95.67-0.70 95.77-0.70L95.77-0.70L95.77-0.70Q95.91-0.75 96-0.75L96-0.75L96 0L96 0Q95.91 0 95.77 0L95.77 0L95.77 0Q95.53 0.05 95.39 0.05L95.39 0.05L95.39 0.05Q94.27 0.05 94.31-0.84L94.31-0.84L94.31-0.84Q93.38 0.09 92.02 0.09L92.02 0.09L92.02 0.09Q90.14 0 90.05-1.64L90.05-1.64L90.05-1.64Q90.09-3.33 91.97-3.61L91.97-3.61L93.70-3.80L93.70-3.80Q94.27-3.89 94.27-4.55L94.27-4.55L94.27-4.55Q94.27-5.58 92.77-5.58L92.77-5.58L92.77-5.58Q91.45-5.58 91.36-4.36ZM94.22-2.16L94.22-2.16L94.22-3.19L94.22-3.19Q93.84-2.95 92.48-2.77L92.48-2.77L92.48-2.77Q91.17-2.67 91.17-1.78L91.17-1.78L91.17-1.78Q91.17-0.70 92.25-0.70L92.25-0.70L92.25-0.70Q94.08-0.84 94.22-2.16ZM101.63-4.45L101.63-4.45L100.59-4.45L100.59-4.45Q100.59-5.53 99.09-5.53L99.09-5.53L99.09-5.53Q97.92-5.48 97.88-4.64L97.88-4.64L97.88-4.64Q97.78-4.03 99-3.80L99-3.80L100.08-3.56L100.08-3.56Q101.86-3.14 101.81-1.88L101.81-1.88L101.81-1.88Q101.72 0 99.38 0.09L99.38 0.09L99.38 0.09Q96.70 0.09 96.66-2.02L96.66-2.02L97.64-2.02L97.64-2.02Q97.73-0.70 99.38-0.70L99.38-0.70L99.38-0.70Q100.73-0.75 100.78-1.73L100.78-1.73L100.78-1.73Q100.88-2.30 99.56-2.63L99.56-2.63L98.30-2.91L98.30-2.91Q96.84-3.28 96.84-4.41L96.84-4.41L96.84-4.41Q96.94-6.33 99.23-6.47L99.23-6.47L99.23-6.47Q101.48-6.42 101.63-4.45ZM107.34-1.97L107.34-1.97L108.38-1.97L108.38-1.97Q108.19-0.89 107.25-0.23L107.25-0.23L107.25-0.23Q106.73 0.09 105.56 0.09L105.56 0.09L105.56 0.09Q102.89 0 102.75-2.95L102.75-2.95L102.75-2.95Q102.84-6.38 105.75-6.47L105.75-6.47L105.75-6.47Q108.42-6.42 108.47-2.77L108.47-2.77L103.88-2.77L103.88-2.77Q103.88-0.70 105.70-0.70L105.70-0.70L105.70-0.70Q107.02-0.80 107.34-1.97ZM103.88-3.61L103.88-3.61L107.39-3.61L107.39-3.61Q107.25-5.48 105.61-5.48L105.61-5.48L105.61-5.48Q104.06-5.34 103.88-3.61Z" transform="translate(-0.890625, 8.578125)"></path></g></g></g></g></svg>